Coordinates
version=1
nRows=24
nColumns=24
inDegrees=yes

Units are S.I. units (second, meters, Newtons, ...)
Angles are in degrees.

endheader
time	pelvis_tilt	pelvis_list	pelvis_rotation	pelvis_tx	pelvis_ty	pelvis_tz	hip_flexion_r	hip_adduction_r	hip_rotation_r	knee_angle_r	ankle_angle_r	subtalar_angle_r	mtp_angle_r	hip_flexion_l	hip_adduction_l	hip_rotation_l	knee_angle_l	ankle_angle_l	subtalar_angle_l	mtp_angle_l	lumbar_extension	lumbar_bending	lumbar_rotation
      0.92033333	     -2.36748659	     -2.87022700	     -2.35907925	     -0.17012184	      0.97862393	      0.29888454	     -9.17811296	      6.28476763	     -5.54246605	    -11.47539685	     13.84693566	      2.15157565	      2.46598417	     25.00469029	     -0.82776102	     -3.55147395	     -3.72796567	     -0.77785689	     -3.26804388	     -2.01552846	     -2.52740848	      6.70371753	      7.38275291
      0.92450000	     -2.40108467	     -2.79678618	     -2.38682921	     -0.16426865	      0.97811839	      0.29860935	     -9.13600248	      6.14468337	     -5.40512467	    -12.20644674	     14.03447836	      1.97850161	      2.51690721	     24.97747705	     -0.69126954	     -3.47060707	     -3.92662051	     -1.02828900	     -3.29576577	     -1.83260354	     -2.46039825	      6.62282622	      7.35386967
      0.92866667	     -2.45242331	     -2.68954563	     -2.36362992	     -0.15837615	      0.97760236	      0.29821817	     -9.03878992	      5.96052218	     -5.41304840	    -12.99400987	     14.07329716	      1.92381348	      3.46122708	     24.96820385	     -0.49132583	     -3.25558842	     -4.17114358	     -1.39356829	     -3.61327836	      1.53107116	     -2.36575058	      6.50286933	      7.34431574
      0.93283333	     -2.53098632	     -2.58451805	     -2.38955102	     -0.15247603	      0.97714364	      0.29791504	     -8.88726942	      5.78640955	     -5.27369389	    -13.82860440	     14.08860374	      1.73837495	      3.48679121	     24.98489564	     -0.32076611	     -3.10846013	     -4.48094233	     -1.70830930	     -3.83407318	      1.55479896	     -2.22943735	      6.38250318	      7.34030309
      0.93700000	     -2.62141117	     -2.48105646	     -2.37809740	     -0.14658176	      0.97668079	      0.29754041	     -8.68742419	      5.61530764	     -5.18603369	    -14.72660347	     14.08733473	      1.56646470	      3.53191678	     25.02660064	     -0.13364328	     -2.86861027	     -4.85422706	     -2.02836518	     -4.17380612	      1.60153363	     -2.08262448	      6.26773869	      7.32485831
      0.94116667	     -2.68614189	     -2.35397326	     -2.36687680	     -0.14063786	      0.97631882	      0.29715423	     -8.48539927	      5.41419966	     -5.11412473	    -15.67774185	     14.03708433	      1.40018786	      3.60042378	     25.02752036	      0.07784576	     -2.63527647	     -5.24681866	     -2.37154116	     -4.55649196	      1.66815088	     -1.95568413	      6.11978815	      7.29980077
      0.94533333	     -2.74806447	     -2.22270516	     -2.34401389	     -0.13469246	      0.97598802	      0.29674750	     -8.25271137	      5.20893834	     -5.04860604	    -16.68601328	     13.93962304	      1.23150218	      3.69768824	     25.03225322	      0.29723057	     -2.38687910	     -5.68366872	     -2.71347226	     -4.97029820	      1.75178669	     -1.83548824	      5.96668106	      7.26447688
      0.94950000	     -2.82580934	     -2.08607045	     -2.32650778	     -0.12872356	      0.97569593	      0.29633716	     -7.96411738	      4.99492130	     -4.98078126	    -17.76139329	     13.78632355	      1.04627548	      3.81723603	     25.04965342	      0.51729150	     -2.15130087	     -6.14394384	     -3.05794676	     -5.38649433	      1.84108931	     -1.68786382	      5.81263203	      7.22368187
      0.95366667	     -2.88386290	     -1.93903339	     -2.30138659	     -0.12274522	      0.97546858	      0.29590150	     -7.66013499	      4.76509515	     -4.93261118	    -18.89637143	     13.56964421	      0.86913270	      3.96009655	     25.04374832	      0.75110537	     -1.92131941	     -6.62090568	     -3.39687753	     -5.81267820	      1.93220633	     -1.56416114	      5.64289434	      7.17498981
      0.95783333	     -2.95094904	     -1.79224141	     -2.27377381	     -0.11677302	      0.97526135	      0.29545726	     -7.30472292	      4.53297919	     -4.88990610	    -20.09886235	     13.29025805	      0.69681007	      4.13741149	     25.05454330	      0.98249550	     -1.70104783	     -7.12923501	     -3.71936483	     -6.25204997	      2.02755748	     -1.42779847	      5.46455489	      7.12011494
      0.96200000	     -2.98718788	     -1.61211449	     -2.23047373	     -0.11077077	      0.97512265	      0.29494019	     -6.94089590	      4.23984995	     -4.95000451	    -21.35444449	     12.84839689	      0.66920611	      8.06681393	     25.02997154	      1.25666483	     -1.49586678	     -7.64727096	     -4.04551203	     -6.73913253	      3.79003274	     -1.33142392	      5.25665527	      7.03518553
      0.96616667	     -3.05165813	     -1.45118881	     -2.21573958	     -0.10479264	      0.97502132	      0.29451353	     -6.50894752	      3.98770882	     -4.87721791	    -22.67624712	     12.42010814	      0.38490955	      8.11308060	     25.02505393	      1.48928898	     -1.33434166	     -8.15909412	     -4.32899980	     -7.09934564	      3.77979712	     -1.19456642	      5.06506172	      6.99374167
      0.97033333	     -3.12189505	     -1.28355324	     -2.18964647	     -0.09884779	      0.97491747	      0.29403792	     -6.01860387	      3.71481253	     -4.85776018	    -24.07831707	     11.93199503	      0.23052904	      8.20945228	     25.03891908	      1.73432460	     -1.16907566	     -8.70313525	     -4.56812180	     -7.50061920	      3.77137312	     -1.05950743	      4.86909984	      6.93132961
      0.97450000	     -3.18450454	     -1.09283727	     -2.17058938	     -0.09289888	      0.97486970	      0.29354912	     -5.49096256	      3.40360468	     -4.85754765	    -25.54588255	     11.35199368	      0.11865478	      8.34564688	     25.02996228	      1.99843135	     -1.02734774	     -9.22765199	     -4.77454229	     -7.86170318	      3.76288707	     -0.93323882	      4.65331276	      6.86519972
      0.97866667	     -3.22303569	     -0.88021183	     -2.15158938	     -0.08697873	      0.97486566	      0.29302060	     -4.93873789	      3.05071484	     -4.89067725	    -27.09030970	     10.75124918	      0.10521619	      8.77488806	     24.98843262	      2.29228249	     -0.86042425	     -9.74733663	     -4.91528048	     -8.35501100	      3.74094959	     -0.84316207	      4.40880365	      6.79575659
      0.98283333	     -3.28878686	     -0.67927857	     -2.13148636	     -0.08108530	      0.97486539	      0.29253595	     -4.32314289	      2.71420269	     -4.90703119	    -28.66715168	      9.97559721	      0.02113756	      9.05841994	     24.99610695	      2.55498531	     -0.81093035	    -10.30332715	     -5.06136676	     -8.58858746	      3.72422980	     -0.71947605	      4.17564042	      6.72513178
      0.98700000	     -3.33779292	     -0.44544052	     -2.12364037	     -0.07521201	      0.97491078	      0.29203591	     -3.67577781	      2.32433516	     -4.93697066	    -30.31592874	      9.16031697	     -0.01380268	      9.42068970	     24.96200384	      2.85101724	     -0.74677028	    -10.81961072	     -5.12373440	     -8.86751522	      3.69971436	     -0.61821459	      3.90706415	      6.65546889
      0.99116667	     -3.29984205	     -0.17534925	     -2.09445446	     -0.06929278	      0.97510341	      0.29146061	     -3.10667108	      1.86477318	     -5.04485457	    -31.95498333	      8.08340753	     -0.04231035	     15.06130614	     24.78578821	      3.20407967	     -0.61983468	    -11.24749225	     -5.12021540	     -9.18043823	      3.24865977	     -0.61134767	      3.59064990	      6.58897308
      0.99533333	     -3.34491851	      0.08237942	     -2.11932920	     -0.06348954	      0.97520017	      0.29103407	     -2.37886634	      1.44223551	     -5.01256446	    -33.71226616	      7.19614774	     -0.18971786	     15.09927436	     24.73815413	      3.49481378	     -0.68632530	    -11.74649466	     -5.04750610	     -9.23350575	      3.24903651	     -0.51688281	      3.29381593	      6.49928388
      0.99950000	     -3.37843887	      0.34959014	     -2.12619541	     -0.05771494	      0.97532507	      0.29056388	     -1.63808445	      0.99787164	     -5.01411331	    -35.48081678	      6.17838015	     -0.25531269	     15.16029849	     24.66506729	      3.80801547	     -0.70723239	    -12.22149359	     -4.92292524	     -9.34628906	      3.24424653	     -0.43811319	      2.98727692	      6.42368853
      1.00366667	     -3.40421571	      0.63673225	     -2.13416115	     -0.05197568	      0.97547846	      0.29008767	     -0.87402033	      0.52322800	     -5.01507995	    -37.27719848	      5.11743851	     -0.29642645	     15.24487386	     24.57272983	      4.14094284	     -0.74308071	    -12.67266693	     -4.76600209	     -9.46147725	      3.23304403	     -0.37257568	      2.65836021	      6.34761892
      1.00783333	     -3.42567673	      0.93350373	     -2.14352163	     -0.04628501	      0.97564743	      0.28963205	     -0.08476797	      0.03631413	     -5.00293160	    -39.09449789	      4.01880769	     -0.34559397	     15.33933891	     24.46111157	      4.47991964	     -0.78916349	    -13.09051704	     -4.56781926	     -9.54248448	      3.21694054	     -0.32199504	      2.31443283	      6.26823594
      1.01200000	     -3.40844436	      1.25674530	     -2.15414438	     -0.04062610	      0.97588261	      0.28918128	      0.68129408	     -0.47870735	     -4.96296008	    -40.91347436	      2.92012839	     -0.43197777	     15.41512514	     24.29350882	      4.84641568	     -0.84938618	    -13.47845938	     -4.31308825	     -9.58370324	      3.20230128	     -0.31989317	      1.94001817	      6.18090828
      1.01616667	     -3.43065668	      1.56666109	     -2.16040820	     -0.03501956	      0.97606733	      0.28874132	      1.51829849	     -0.98482501	     -4.93970521	    -42.74586607	      1.78159742	     -0.49016164	     15.51070633	     24.16025629	      5.19422775	     -0.94003009	    -13.84282686	     -4.06113245	     -9.62443331	      3.17546735	     -0.26946627	      1.57407594	      6.09485524
